<svg width="500" height="413" viewBox="0 0 500 413" fill="none" xmlns="http://www.w3.org/2000/svg">
<path d="M296 354V412H499V354H296Z" fill="#D9D9D9"/>
<path d="M0.5 1H115V115.5H244.5C273.7 126.783 284.411 136.435 291 161C297.475 220.567 297.374 254.308 291 315C278.046 335.772 267.473 343.276 244.5 351.5H0.5V1Z" fill="#D9D9D9"/>
<path d="M296 354V412H499V354H296Z" stroke="black"/>
<path d="M0.5 1H115V115.5H244.5C273.7 126.783 284.411 136.435 291 161C297.475 220.567 297.374 254.308 291 315C278.046 335.772 267.473 343.276 244.5 351.5H0.5V1Z" stroke="black"/>
</svg>
