<?xml version="1.0" encoding="iso-8859-1"?>
<!-- Generator: Adobe Illustrator 19.0.0, SVG Export Plug-In . SVG Version: 6.00 Build 0)  -->
<svg version="1.1" id="Layer_1" xmlns="http://www.w3.org/2000/svg" xmlns:xlink="http://www.w3.org/1999/xlink" x="0px" y="0px"
	 viewBox="0 0 303.188 303.188" style="enable-background:new 0 0 303.188 303.188;" xml:space="preserve">
<g>
	<g>
		<polygon style="fill:#005FAD;" points="243.39,0 42.919,0 42.919,303.188 293.913,303.188 293.913,50.525 		"/>
		<polygon style="fill:#5E96DC;" points="243.39,50.525 293.913,50.525 243.39,0 		"/>
	</g>
	<g>
		<rect x="9.274" y="50.525" style="fill:#5E96DC;" width="146.818" height="67.882"/>
		<g>
			<path style="fill:#005FAD;" d="M31.979,69.545c0-2.35,1.859-4.211,4.211-4.211h11.423c9.128,0,14.65,5.413,14.65,13.229v0.112
				c0,8.851-6.888,13.443-15.469,13.443h-6.396v7.601c0,2.35-1.858,4.208-4.208,4.208c-2.352,0-4.211-1.858-4.211-4.208
				C31.979,99.719,31.979,69.545,31.979,69.545z M47.066,84.629c4.21,0,6.67-2.516,6.67-5.789v-0.113
				c0-3.768-2.625-5.794-6.832-5.794h-6.506v11.696H47.066z"/>
			<path style="fill:#005FAD;" d="M67.749,99.555c-0.928-0.656-1.584-1.856-1.584-3.171c0-2.187,1.748-3.882,3.936-3.882
				c1.093,0,1.858,0.385,2.404,0.765c2.897,2.132,6.069,3.446,9.786,3.446c3.442,0,5.521-1.365,5.521-3.61v-0.111
				c0-2.131-1.313-3.222-7.707-4.865c-7.708-1.966-12.683-4.098-12.683-11.695v-0.106c0-6.945,5.575-11.538,13.393-11.538
				c4.647,0,8.69,1.2,12.135,3.392c0.928,0.549,1.858,1.693,1.858,3.335c0,2.187-1.749,3.882-3.937,3.882
				c-0.819,0-1.475-0.221-2.132-0.602c-2.786-1.644-5.41-2.569-8.034-2.569c-3.228,0-4.92,1.476-4.92,3.335v0.105
				c0,2.517,1.64,3.335,8.254,5.031c7.762,2.023,12.134,4.81,12.134,11.478v0.112c0,7.596-5.795,11.861-14.048,11.861
				C77.099,104.146,72.013,102.616,67.749,99.555z"/>
			<path style="fill:#005FAD;" d="M103.516,69.545c0-2.35,1.858-4.211,4.21-4.211h10.713c12.026,0,20.334,8.256,20.334,19.024v0.11
				c0,10.768-8.308,19.129-20.334,19.129h-10.713c-2.352,0-4.21-1.861-4.21-4.21V69.545z M118.44,96.002
				c6.888,0,11.531-4.646,11.531-11.427v-0.106c0-6.778-4.643-11.536-11.531-11.536h-6.505v23.069
				C111.936,96.002,118.44,96.002,118.44,96.002z"/>
		</g>
	</g>
	<g>
		<path style="fill:#5E96DC;" d="M94.875,161.68c0-5.385,4.258-9.648,9.647-9.648h26.171c20.915,0,33.568,12.4,33.568,30.307v0.254
			c0,20.283-15.782,30.806-35.443,30.806h-14.654v17.411c0,5.385-4.258,9.646-9.642,9.646c-5.389,0-9.647-4.261-9.647-9.646
			L94.875,161.68L94.875,161.68z M129.441,196.237c9.647,0,15.283-5.763,15.283-13.266v-0.258c0-8.634-6.013-13.276-15.655-13.276
			h-14.903v26.8H129.441z"/>
		<path style="fill:#5E96DC;" d="M176.831,230.433c-2.126-1.5-3.631-4.253-3.631-7.263c0-5.008,4.007-8.892,9.02-8.892
			c2.503,0,4.257,0.876,5.507,1.751c6.639,4.884,13.905,7.895,22.42,7.895c7.888,0,12.649-3.128,12.649-8.271v-0.254
			c0-4.882-3.008-7.381-17.657-11.148c-17.662-4.504-29.059-9.388-29.059-26.797v-0.243c0-15.911,12.773-26.434,30.686-26.434
			c10.646,0,19.911,2.751,27.804,7.769c2.126,1.254,4.257,3.879,4.257,7.64c0,5.01-4.008,8.894-9.02,8.894
			c-1.877,0-3.381-0.502-4.884-1.378c-6.384-3.763-12.395-5.884-18.407-5.884c-7.394,0-11.274,3.378-11.274,7.639v0.243
			c0,5.767,3.757,7.639,18.913,11.525c17.784,4.638,27.802,11.02,27.802,26.298v0.256c0,17.405-13.277,27.175-32.189,27.175
			C198.251,240.952,186.599,237.449,176.831,230.433z"/>
	</g>
</g>
<g>
</g>
<g>
</g>
<g>
</g>
<g>
</g>
<g>
</g>
<g>
</g>
<g>
</g>
<g>
</g>
<g>
</g>
<g>
</g>
<g>
</g>
<g>
</g>
<g>
</g>
<g>
</g>
<g>
</g>
</svg>
