<svg xmlns="http://www.w3.org/2000/svg" viewBox="0 0 303.188 303.188" style="enable-background:new 0 0 303.188 303.188" xml:space="preserve"><path style="fill:#005fad" d="M243.39 0H42.919v303.188h250.994V50.525z"/><path style="fill:#5e96dc" d="M243.39 50.525h50.523L243.39 0zm-234.116 0h146.818v67.882H9.274z"/><path style="fill:#005fad" d="M31.979 69.545a4.179 4.179 0 0 1 4.211-4.211h11.423c9.128 0 14.65 5.413 14.65 13.229v.112c0 8.851-6.888 13.443-15.469 13.443h-6.396v7.601a4.175 4.175 0 0 1-4.208 4.208 4.176 4.176 0 0 1-4.211-4.208V69.545zm15.087 15.084c4.21 0 6.67-2.516 6.67-5.789v-.113c0-3.768-2.625-5.794-6.832-5.794h-6.506v11.696h6.668zm20.683 14.926c-.928-.656-1.584-1.856-1.584-3.171 0-2.187 1.748-3.882 3.936-3.882 1.093 0 1.858.385 2.404.765 2.897 2.132 6.069 3.446 9.786 3.446 3.442 0 5.521-1.365 5.521-3.61v-.111c0-2.131-1.313-3.222-7.707-4.865-7.708-1.966-12.683-4.098-12.683-11.695v-.106c0-6.945 5.575-11.538 13.393-11.538 4.647 0 8.69 1.2 12.135 3.392a3.84 3.84 0 0 1 1.858 3.335c0 2.187-1.749 3.882-3.937 3.882-.819 0-1.475-.221-2.132-.602-2.786-1.644-5.41-2.569-8.034-2.569-3.228 0-4.92 1.476-4.92 3.335v.105c0 2.517 1.64 3.335 8.254 5.031 7.762 2.023 12.134 4.81 12.134 11.478v.112c0 7.596-5.795 11.861-14.048 11.861-5.026-.002-10.112-1.532-14.376-4.593zm35.767-30.01a4.178 4.178 0 0 1 4.21-4.211h10.713c12.026 0 20.334 8.256 20.334 19.024v.11c0 10.768-8.308 19.129-20.334 19.129h-10.713a4.178 4.178 0 0 1-4.21-4.21V69.545zm14.924 26.457c6.888 0 11.531-4.646 11.531-11.427v-.106c0-6.778-4.643-11.536-11.531-11.536h-6.505v23.069h6.505z"/><path style="fill:#5e96dc" d="M94.875 161.68c0-5.385 4.258-9.648 9.647-9.648h26.171c20.915 0 33.568 12.4 33.568 30.307v.254c0 20.283-15.782 30.806-35.443 30.806h-14.654v17.411c0 5.385-4.258 9.646-9.642 9.646-5.389 0-9.647-4.261-9.647-9.646v-69.13zm34.566 34.557c9.647 0 15.283-5.763 15.283-13.266v-.258c0-8.634-6.013-13.276-15.655-13.276h-14.903v26.8h15.275zm47.39 34.196c-2.126-1.5-3.631-4.253-3.631-7.263 0-5.008 4.007-8.892 9.02-8.892 2.503 0 4.257.876 5.507 1.751 6.639 4.884 13.905 7.895 22.42 7.895 7.888 0 12.649-3.128 12.649-8.271v-.254c0-4.882-3.008-7.381-17.657-11.148-17.662-4.504-29.059-9.388-29.059-26.797v-.243c0-15.911 12.773-26.434 30.686-26.434 10.646 0 19.911 2.751 27.804 7.769 2.126 1.254 4.257 3.879 4.257 7.64 0 5.01-4.008 8.894-9.02 8.894-1.877 0-3.381-.502-4.884-1.378-6.384-3.763-12.395-5.884-18.407-5.884-7.394 0-11.274 3.378-11.274 7.639v.243c0 5.767 3.757 7.639 18.913 11.525 17.784 4.638 27.802 11.02 27.802 26.298v.256c0 17.405-13.277 27.175-32.189 27.175-11.517-.002-23.169-3.505-32.937-10.521z"/></svg>