<svg width="414" height="414" fill="none" xmlns="http://www.w3.org/2000/svg"><g clip-path="url(#a)"><path d="M386.221 103.5a207.002 207.002 0 0 0-358.524 0l12.42 223.56L386.22 103.5Z" fill="url(#b)"/><path d="M117.369 258.75 27.738 103.5A207.001 207.001 0 0 0 207 414l202.86-207-292.491 51.75Z" fill="url(#c)"/><path d="M296.631 258.75 207 414a207.005 207.005 0 0 0 179.232-103.52 206.999 206.999 0 0 0-.011-206.98H207l89.631 155.25Z" fill="url(#d)"/><path d="M207 310.5a103.506 103.506 0 0 0 73.186-30.314 103.506 103.506 0 0 0 0-146.372 103.506 103.506 0 0 0-146.372 0A103.5 103.5 0 0 0 207 310.5Z" fill="#fff"/><path d="M207 288.972a81.959 81.959 0 0 0 31.369-6.24 81.957 81.957 0 0 0 44.363-44.363 81.959 81.959 0 0 0 0-62.738 81.957 81.957 0 0 0-44.363-44.363A81.972 81.972 0 1 0 207 288.972Z" fill="#1A73E8"/><g filter="url(#e)"><path d="M158 299h340v115H158V299Z" fill="#D9D9D9" fill-opacity=".75" shape-rendering="crispEdges"/></g><path d="M226.664 390H212.47l.088-11.865h14.106c2.93 0 5.405-.703 7.427-2.11 2.051-1.406 3.603-3.501 4.658-6.284 1.084-2.812 1.626-6.269 1.626-10.371v-2.768c0-3.077-.308-5.772-.923-8.086-.586-2.344-1.465-4.292-2.637-5.845-1.171-1.582-2.636-2.769-4.394-3.56-1.729-.791-3.721-1.186-5.977-1.186h-14.238v-11.909h14.238c4.336 0 8.306.747 11.91 2.241 3.632 1.465 6.767 3.574 9.404 6.328 2.666 2.725 4.717 5.962 6.152 9.712 1.465 3.721 2.197 7.851 2.197 12.392v2.681c0 4.512-.732 8.643-2.197 12.393-1.435 3.75-3.472 6.987-6.108 9.712-2.637 2.724-5.757 4.834-9.361 6.328-3.574 1.465-7.5 2.197-11.777 2.197Zm-5.361-63.984V390h-15.425v-63.984h15.425Zm86.88 52.119V390h-34.102v-11.865h34.102Zm-28.609-52.119V390h-15.425v-63.984h15.425Zm24.214 25.4v11.47h-29.707v-11.47h29.707Zm4.526-25.4v11.909h-34.233v-11.909h34.233Zm30.411 48.911 13.315-48.911h17.271L347.733 390h-11.162l2.154-15.073Zm-12.085-48.911 13.315 48.911L342.196 390h-11.294l-21.445-63.984h17.183Z" fill="#333"/></g><defs><linearGradient id="b" x1="27.738" y1="129.375" x2="386.221" y2="129.375" gradientUnits="userSpaceOnUse"><stop stop-color="#D93025"/><stop offset="1" stop-color="#EA4335"/></linearGradient><linearGradient id="c" x1="229.397" y1="401.042" x2="50.135" y2="90.542" gradientUnits="userSpaceOnUse"><stop stop-color="#1E8E3E"/><stop offset="1" stop-color="#34A853"/></linearGradient><linearGradient id="d" x1="176.778" y1="414" x2="356.04" y2="104.038" gradientUnits="userSpaceOnUse"><stop stop-color="#FCC934"/><stop offset="1" stop-color="#FBBC04"/></linearGradient><clipPath id="a"><path fill="#fff" d="M0 0h414v414H0z"/></clipPath><filter id="e" x="154" y="299" width="348" height="123" filterUnits="userSpaceOnUse" color-interpolation-filters="sRGB"><feFlood flood-opacity="0" result="BackgroundImageFix"/><feColorMatrix in="SourceAlpha" values="0 0 0 0 0 0 0 0 0 0 0 0 0 0 0 0 0 0 127 0" result="hardAlpha"/><feOffset dy="4"/><feGaussianBlur stdDeviation="2"/><feComposite in2="hardAlpha" operator="out"/><feColorMatrix values="0 0 0 0 0 0 0 0 0 0 0 0 0 0 0 0 0 0 0.25 0"/><feBlend in2="BackgroundImageFix" result="effect1_dropShadow_20004857_13574"/><feBlend in="SourceGraphic" in2="effect1_dropShadow_20004857_13574" result="shape"/></filter></defs></svg>