<svg width="130" height="128" fill="none" xmlns="http://www.w3.org/2000/svg"><circle cx="64" cy="64" r="64" fill="#0071E3"/><path d="m14.209 78.232 6.24-24.931h10.4L20.48 85h-6.153l-.117-6.768Zm-3.691-24.931 6.152 24.931L16.61 85H10.43L.088 53.3h10.43ZM62.432 77.09V85H40.869v-7.91h21.563Zm-17.9-34.746V85H34.247V42.344h10.283ZM94.423 56.23v7.618H67.266V56.23h27.158Zm0 12.862v7.617H67.266v-7.617h27.158Zm22.734 2.402h-8.408c0-1.719.117-3.232.352-4.54.253-1.329.683-2.52 1.289-3.575.605-1.055 1.425-2.031 2.461-2.93a26.857 26.857 0 0 0 2.373-2.197c.664-.703 1.171-1.416 1.523-2.139a5.216 5.216 0 0 0 .527-2.314c0-1.016-.146-1.846-.439-2.49-.274-.645-.693-1.123-1.26-1.436-.547-.332-1.24-.498-2.08-.498-.684 0-1.328.166-1.934.498-.585.332-1.064.85-1.435 1.553-.371.683-.576 1.592-.615 2.724H99.58c.059-2.91.703-5.273 1.934-7.09 1.25-1.835 2.91-3.173 4.98-4.013 2.09-.86 4.424-1.29 7.002-1.29 2.852 0 5.303.44 7.354 1.32 2.05.878 3.623 2.187 4.716 3.925 1.094 1.719 1.641 3.838 1.641 6.357 0 1.68-.322 3.145-.967 4.395-.625 1.23-1.474 2.383-2.549 3.457a126.077 126.077 0 0 1-3.545 3.398c-1.132.997-1.904 2.012-2.314 3.047-.41 1.016-.635 2.295-.674 3.838Zm-9.609 8.906c0-1.406.508-2.578 1.523-3.515 1.016-.957 2.334-1.436 3.955-1.436s2.94.479 3.955 1.436c1.016.937 1.524 2.11 1.524 3.515 0 1.407-.508 2.588-1.524 3.545-1.015.938-2.334 1.407-3.955 1.407s-2.939-.47-3.955-1.407c-1.015-.957-1.523-2.138-1.523-3.545Z" fill="#fff"/></svg>